<svg width="16" height="102" viewBox="0 0 16 102" fill="none" xmlns="http://www.w3.org/2000/svg">
<path d="M9.68334 83.0758V74.7938L11.1759 73.3013C11.4911 72.9856 11.6682 72.5578 11.6682 72.1117C11.6682 71.6656 11.4911 71.2378 11.1759 70.9222C10.9834 70.7301 10.7464 70.5887 10.486 70.5103C10.2256 70.432 9.94985 70.4193 9.68334 70.4733V65.8161L11.1759 64.3235C11.4911 64.0079 11.6682 63.58 11.6682 63.1339C11.6682 62.6879 11.4911 62.26 11.1759 61.9444C10.9834 61.7524 10.7464 61.6109 10.486 61.5326C10.2256 61.4543 9.94985 61.4415 9.68334 61.4955V56.8383L11.1759 55.3457C11.4911 55.0301 11.6682 54.6023 11.6682 54.1562C11.6682 53.7101 11.4911 53.2822 11.1759 52.9666C10.9834 52.7746 10.7464 52.6331 10.486 52.5548C10.2256 52.4765 9.94985 52.4637 9.68334 52.5177V47.8605L11.1759 46.368C11.4911 46.0523 11.6682 45.6245 11.6682 45.1784C11.6682 44.7323 11.4911 44.3045 11.1759 43.9888C10.9834 43.7968 10.7464 43.6553 10.486 43.577C10.2256 43.4987 9.94985 43.486 9.68334 43.54V38.8827L11.1759 37.3902C11.4911 37.0746 11.6682 36.6467 11.6682 36.2006C11.6682 35.7545 11.4911 35.3267 11.1759 35.0111C10.9834 34.819 10.7464 34.6775 10.486 34.5992C10.2256 34.5209 9.94985 34.5082 9.68334 34.5622V29.905L11.1759 28.4124C11.4911 28.0968 11.6682 27.6689 11.6682 27.2228C11.6682 26.7768 11.4911 26.3489 11.1759 26.0333C10.9834 25.8412 10.7464 25.6998 10.486 25.6215C10.2256 25.5431 9.94985 25.5304 9.68334 25.5844V20.9272L11.1759 19.4346C11.4911 19.119 11.6682 18.6911 11.6682 18.2451C11.6682 17.799 11.4911 17.3711 11.1759 17.0555C10.9834 16.8635 10.7464 16.722 10.486 16.6437C10.2256 16.5654 9.94985 16.5526 9.68334 16.6066V12.2187L11.1759 10.7262C11.4911 10.4105 11.6682 9.9827 11.6682 9.53662C11.6682 9.09053 11.4911 8.66269 11.1759 8.34706C10.9823 8.157 10.7448 8.01762 10.4844 7.94128C10.2241 7.86494 9.94894 7.85399 9.68334 7.9094V4.26217H11.9278C12.3742 4.26217 12.8024 4.08482 13.1181 3.76914C13.4338 3.45345 13.6111 3.02529 13.6111 2.57884C13.6111 2.13239 13.4338 1.70423 13.1181 1.38854C12.8024 1.07286 12.3742 0.895508 11.9278 0.895508H4.07223C3.62579 0.895508 3.19762 1.07286 2.88194 1.38854C2.56625 1.70423 2.3889 2.13239 2.3889 2.57884C2.3889 3.02529 2.56625 3.45345 2.88194 3.76914C3.19762 4.08482 3.62579 4.26217 4.07223 4.26217H6.31668V10.816L4.82412 12.3085C4.53515 12.547 4.33735 12.8779 4.2641 13.2454C4.19085 13.6128 4.24666 13.9943 4.42209 14.3254C4.59752 14.6564 4.88182 14.9168 5.22699 15.0626C5.57217 15.2083 5.95706 15.2305 6.31668 15.1253V19.5356L4.82412 21.0282C4.53515 21.2667 4.33735 21.5976 4.2641 21.965C4.19085 22.3325 4.24666 22.714 4.42209 23.045C4.59752 23.3761 4.88182 23.6365 5.22699 23.7822C5.57217 23.928 5.95706 23.9501 6.31668 23.845V28.5134L4.82412 30.006C4.53515 30.2445 4.33735 30.5754 4.2641 30.9428C4.19085 31.3103 4.24666 31.6917 4.42209 32.0228C4.59752 32.3539 4.88182 32.6143 5.22699 32.76C5.57217 32.9057 5.95706 32.9279 6.31668 32.8227V37.4912L4.82412 38.9837C4.53515 39.2222 4.33735 39.5531 4.2641 39.9206C4.19085 40.288 4.24666 40.6695 4.42209 41.0006C4.59752 41.3317 4.88182 41.5921 5.22699 41.7378C5.57217 41.8835 5.95706 41.9057 6.31668 41.8005V46.469L4.82412 47.9615C4.53515 48.2 4.33735 48.5309 4.2641 48.8984C4.19085 49.2658 4.24666 49.6473 4.42209 49.9784C4.59752 50.3094 4.88182 50.5698 5.22699 50.7156C5.57217 50.8613 5.95706 50.8835 6.31668 50.7783V55.4467L4.82412 56.9393C4.53515 57.1778 4.33735 57.5087 4.2641 57.8761C4.19085 58.2436 4.24666 58.6251 4.42209 58.9561C4.59752 59.2872 4.88182 59.5476 5.22699 59.6933C5.57217 59.8391 5.95706 59.8612 6.31668 59.7561V64.4245L4.82412 65.9171C4.53515 66.1556 4.33735 66.4865 4.2641 66.8539C4.19085 67.2214 4.24666 67.6028 4.42209 67.9339C4.59752 68.265 4.88182 68.5254 5.22699 68.6711C5.57217 68.8169 5.95706 68.839 6.31668 68.7338V73.4023L4.82412 74.8948C4.53515 75.1333 4.33735 75.4643 4.2641 75.8317C4.19085 76.1992 4.24666 76.5806 4.42209 76.9117C4.59752 77.2428 4.88182 77.5032 5.22699 77.6489C5.57217 77.7946 5.95706 77.8168 6.31668 77.7116V83.0758C3.06223 84.041 0.705566 87.7667 0.705566 92.3566C0.705566 97.7096 3.9039 101.896 8.00001 101.896C12.0961 101.896 15.2945 97.7096 15.2945 92.3566C15.2945 87.7667 12.9378 84.041 9.68334 83.0758ZM8.00001 98.5288C5.86779 98.5288 4.07223 95.7008 4.07223 92.3566C4.07223 89.0124 5.86779 86.1844 8.00001 86.1844C10.1322 86.1844 11.9278 89.0124 11.9278 92.3566C11.9278 95.7008 10.1322 98.5288 8.00001 98.5288Z" fill="white"/>
</svg>
