<svg width="70" height="113" viewBox="0 0 70 113" fill="none" xmlns="http://www.w3.org/2000/svg">
<path d="M68.4999 47.0134C68.9222 51.3733 67.1453 57.4775 62.0141 66.6449C62.7376 58.0647 61.9096 51.8262 60.0537 47.307C58.026 42.3695 54.7829 39.5141 51.0764 37.9154C47.3893 36.3252 43.2684 35.9886 39.4815 36.0275C37.6071 36.0467 35.8025 36.1583 34.1666 36.2595L34.1105 36.263C32.4517 36.3656 30.981 36.4551 29.7623 36.4314L29.2015 36.4204L29.2548 36.9788L34.4349 91.2423C34.435 91.2441 34.4351 91.2459 34.4353 91.2477C35.0902 100.162 29.8871 107.411 20.9509 110.622C16.4345 112.241 11.9707 112.594 8.41545 111.879C4.8492 111.162 2.28635 109.397 1.37412 106.856L1.37401 106.856C0.461037 104.318 1.31588 101.328 3.61281 98.5075C5.90268 95.6956 9.57363 93.1288 14.09 91.5035C18.833 89.8045 23.5134 89.5008 27.148 90.3578L27.8217 90.5166L27.7608 89.8271L20.2299 4.56031C20.2299 4.55896 20.2298 4.5576 20.2297 4.55625C20.1034 2.7587 21.4576 1.17979 23.249 1.05197L23.2494 1.05194C25.0482 0.921926 26.6295 2.27808 26.7575 4.06938L26.7577 4.07162L27.513 14.0127L27.5231 14.1454L27.5978 14.2555C32.521 21.5141 38.6103 26.0043 44.5707 29.3022C47.5478 30.9495 50.4962 32.301 53.2445 33.5479C53.3871 33.6126 53.5291 33.677 53.6706 33.7412C56.2626 34.9165 58.6573 36.0024 60.7456 37.1737C65.1437 39.6407 68.0546 42.415 68.4999 47.0134Z" stroke="white"/>
</svg>
