<svg width="33" height="32" viewBox="0 0 33 32" fill="none" xmlns="http://www.w3.org/2000/svg">
<path d="M5.28214 22.8843C7.6636 23.0183 9.7461 22.4616 11.7771 20.9874C9.72548 20.6368 8.30279 19.6987 7.52959 17.7605C8.12753 17.678 8.65331 17.8327 9.27188 17.5853C7.25124 16.6986 5.94194 15.3687 5.89039 13.0697C6.52957 13.1213 7.01412 13.544 7.77701 13.4821C5.92132 11.6677 5.3543 9.68826 6.51926 7.28617C8.45743 9.513 10.7255 11.0285 13.4987 11.7398C13.6534 11.7811 13.7977 11.8223 13.9523 11.8532C14.6637 12.0182 15.5091 12.3687 15.942 12.3172C16.6843 12.2244 15.9421 11.3687 16.1276 10.2553C16.7153 6.79132 20.5297 5.21399 23.3545 7.24494C24.1793 7.84288 24.8287 7.83257 25.6432 7.47174C26.0659 7.28617 26.4989 7.1006 27.004 6.88411C26.8906 7.87381 26.1277 8.42021 25.5195 9.15217C26.2102 9.30681 26.7669 9.11094 27.4061 8.90475C27.1896 9.6161 26.6535 10.0182 26.169 10.4099C25.6638 10.812 25.4679 11.2347 25.4473 11.8945C25.138 21.8843 13.7874 29.606 6.02442 23.4616C5.27183 22.8637 6.00379 23.4616 5.28214 22.8843Z" fill="white"/>
</svg>
